<svg xmlns="http://www.w3.org/2000/svg" viewBox="0 0 1200 520" fill="none"><defs><filter id="s" x="-30%" y="-40%" width="160%" height="200%"><feDropShadow dx="0" dy="28" stdDeviation="24" flood-opacity=".24"/></filter><linearGradient id="r"><stop stop-color="#060606"/><stop offset=".5" stop-color="#363636"/><stop offset="1" stop-color="#090909"/></linearGradient><linearGradient id="l" y2="1"><stop stop-color="#1a1f24"/><stop offset="1" stop-color="#050607"/></linearGradient></defs><g filter="url(#s)" stroke="url(#r)" stroke-width="31" stroke-linecap="round" stroke-linejoin="round"><path d="M122 184c63-72 303-69 357 8 34 48 7 176-56 208-72 36-238 17-277-42-40-60-58-131-24-174Z" fill="url(#l)"/><path d="M721 192c54-77 294-80 357-8 34 43 16 114-24 174-39 59-205 78-277 42-63-32-90-160-56-208Z" fill="url(#l)"/><path d="M479 214c75-35 167-35 242 0"/><path d="M120 199 31 150M1080 199l90-52"/></g><path d="M161 206c63-44 236-46 286-1" stroke="#fff" stroke-opacity=".16" stroke-width="12" stroke-linecap="round"/><path d="M753 205c50-45 223-43 286 1" stroke="#fff" stroke-opacity=".12" stroke-width="12" stroke-linecap="round"/></svg>